name rise36.2859peak64.2979fall75.1499.mot
datacolumns 19
datarows 12
range 4.64998100000000 4.66831800000000
endheader
time	ground_force1_vx	ground_force1_vy	ground_force1_vz	ground_force1_px	ground_force1_py	ground_force1_pz	ground_force2_vx	ground_force2_vy	ground_force2_vz	ground_force2_px	ground_force2_py	ground_force2_pz	ground_torque1_x	ground_torque1_y	ground_torque1_z	ground_torque2_x	ground_torque2_y	ground_torque2_z	
4.64998100000000	4.63557500000000	708.42811200000006	39.04261500000000	0.31213500000000	0.00000000000000	0.07421400000000	0.00000000000000	0.00000000000000	0.00000000000000	0.00000000000000	0.00000000000000	0.00000000000000	0.00000000000000	22.55706300000000	0.00000000000000	0.00000000000000	0.00000000000000	0.00000000000000	
4.65165200000000	4.14904300000000	709.68665499999997	39.09594200000000	0.31080200000000	0.00000000000000	0.07423500000000	0.00000000000000	0.00000000000000	0.00000000000000	0.00000000000000	0.00000000000000	0.00000000000000	0.00000000000000	22.61607300000000	0.00000000000000	0.00000000000000	0.00000000000000	0.00000000000000	
4.65331800000000	3.66021600000000	710.98006899999996	39.15395900000000	0.30947900000000	0.00000000000000	0.07425600000000	0.00000000000000	0.00000000000000	0.00000000000000	0.00000000000000	0.00000000000000	0.00000000000000	0.00000000000000	22.67869200000000	0.00000000000000	0.00000000000000	0.00000000000000	0.00000000000000	
4.65498800000000	3.16921400000000	712.30624100000000	39.21642800000000	0.30816800000000	0.00000000000000	0.07427700000000	0.00000000000000	0.00000000000000	0.00000000000000	0.00000000000000	0.00000000000000	0.00000000000000	0.00000000000000	22.74469400000000	0.00000000000000	0.00000000000000	0.00000000000000	0.00000000000000	
4.65664800000000	2.67616100000000	713.66312700000003	39.28312100000000	0.30686900000000	0.00000000000000	0.07429800000000	0.00000000000000	0.00000000000000	0.00000000000000	0.00000000000000	0.00000000000000	0.00000000000000	0.00000000000000	22.81385700000000	0.00000000000000	0.00000000000000	0.00000000000000	0.00000000000000	
4.65831400000000	2.18119000000000	715.04876600000000	39.35381300000000	0.30558300000000	0.00000000000000	0.07431900000000	0.00000000000000	0.00000000000000	0.00000000000000	0.00000000000000	0.00000000000000	0.00000000000000	0.00000000000000	22.88596200000000	0.00000000000000	0.00000000000000	0.00000000000000	0.00000000000000	
4.65998500000000	1.68443400000000	716.46127899999999	39.42828900000000	0.30431200000000	0.00000000000000	0.07434000000000	0.00000000000000	0.00000000000000	0.00000000000000	0.00000000000000	0.00000000000000	0.00000000000000	0.00000000000000	22.96079200000000	0.00000000000000	0.00000000000000	0.00000000000000	0.00000000000000	
4.66164500000000	1.18603600000000	717.89887299999998	39.50633700000000	0.30305500000000	0.00000000000000	0.07436000000000	0.00000000000000	0.00000000000000	0.00000000000000	0.00000000000000	0.00000000000000	0.00000000000000	0.00000000000000	23.03813600000000	0.00000000000000	0.00000000000000	0.00000000000000	0.00000000000000	
4.66331500000000	0.68614300000000	719.35984800000006	39.58775700000000	0.30181400000000	0.00000000000000	0.07437900000000	0.00000000000000	0.00000000000000	0.00000000000000	0.00000000000000	0.00000000000000	0.00000000000000	0.00000000000000	23.11778600000000	0.00000000000000	0.00000000000000	0.00000000000000	0.00000000000000	
4.66498200000000	0.18490900000000	720.84259399999996	39.67235500000000	0.30059000000000	0.00000000000000	0.07439800000000	0.00000000000000	0.00000000000000	0.00000000000000	0.00000000000000	0.00000000000000	0.00000000000000	0.00000000000000	23.19953700000000	0.00000000000000	0.00000000000000	0.00000000000000	0.00000000000000	
4.66665000000000	-0.31750900000000	722.34559700000000	39.75994600000000	0.29938200000000	0.00000000000000	0.07441700000000	0.00000000000000	0.00000000000000	0.00000000000000	0.00000000000000	0.00000000000000	0.00000000000000	0.00000000000000	23.28319000000000	0.00000000000000	0.00000000000000	0.00000000000000	0.00000000000000	
4.66831800000000	-0.82094400000000	723.86743500000000	39.85035300000000	0.29819200000000	0.00000000000000	0.07443400000000	0.00000000000000	0.00000000000000	0.00000000000000	0.00000000000000	0.00000000000000	0.00000000000000	0.00000000000000	23.36855000000000	0.00000000000000	0.00000000000000	0.00000000000000	0.00000000000000	
